<?xml version="1.0" encoding="UTF-8" standalone="no"?><!DOCTYPE svg PUBLIC "-//W3C//DTD SVG 1.1//EN" "http://www.w3.org/Graphics/SVG/1.1/DTD/svg11.dtd"><svg width="100%" height="100%" viewBox="0 0 25 29" version="1.1" xmlns="http://www.w3.org/2000/svg" xmlns:xlink="http://www.w3.org/1999/xlink" xml:space="preserve" xmlns:serif="http://www.serif.com/" style="fill-rule:evenodd;clip-rule:evenodd;stroke-linejoin:round;stroke-miterlimit:2;"><g><g><path d="M24.67,14.243l-24.67,14.243l0,-28.486l24.67,14.243Z" style="fill:#c4c4c4;fill-opacity:0.2;fill-rule:nonzero;"/><path d="M13.56,18.005l-1.547,0l0,2.663l-2.655,0l0,-2.663l-5.484,0l0,-1.89l5.634,-8.297l2.505,0l0,8.077l1.547,0l0,2.11Zm-4.202,-2.11l0,-2.179c0,-0.364 0.015,-0.891 0.044,-1.582c0.03,-0.692 0.053,-1.093 0.071,-1.204l-0.071,0c-0.216,0.48 -0.477,0.949 -0.782,1.406l-2.355,3.559l3.093,0Z" style="fill:#a90000;fill-opacity:0.43;fill-rule:nonzero;"/></g></g></svg>