<?xml version="1.0" encoding="UTF-8" standalone="no"?><!DOCTYPE svg PUBLIC "-//W3C//DTD SVG 1.1//EN" "http://www.w3.org/Graphics/SVG/1.1/DTD/svg11.dtd"><svg width="100%" height="100%" viewBox="0 0 25 29" version="1.1" xmlns="http://www.w3.org/2000/svg" xmlns:xlink="http://www.w3.org/1999/xlink" xml:space="preserve" xmlns:serif="http://www.serif.com/" style="fill-rule:evenodd;clip-rule:evenodd;stroke-linejoin:round;stroke-miterlimit:2;"><g><g><path d="M24.67,14.243l-24.67,14.243l0,-28.486l24.67,14.243Z" style="fill:#c4c4c4;fill-opacity:0.2;fill-rule:nonzero;"/><path d="M8.963,12.459c1.242,0 2.231,0.348 2.966,1.046c0.736,0.697 1.103,1.652 1.103,2.865c0,1.435 -0.442,2.54 -1.327,3.313c-0.885,0.774 -2.15,1.161 -3.797,1.161c-1.429,0 -2.584,-0.232 -3.463,-0.695l0,-2.346c0.463,0.246 1.002,0.446 1.618,0.602c0.615,0.155 1.198,0.233 1.749,0.233c1.658,0 2.487,-0.68 2.487,-2.04c0,-1.294 -0.859,-1.942 -2.575,-1.942c-0.311,0 -0.654,0.031 -1.029,0.092c-0.375,0.062 -0.679,0.128 -0.914,0.198l-1.081,-0.58l0.484,-6.548l6.969,0l0,2.303l-4.588,0l-0.237,2.522l0.308,-0.061c0.357,-0.082 0.8,-0.123 1.327,-0.123Z" style="fill:#a90000;fill-opacity:0.43;fill-rule:nonzero;"/></g></g></svg>