<?xml version="1.0" encoding="UTF-8" standalone="no"?><!DOCTYPE svg PUBLIC "-//W3C//DTD SVG 1.1//EN" "http://www.w3.org/Graphics/SVG/1.1/DTD/svg11.dtd"><svg width="100%" height="100%" viewBox="0 0 25 29" version="1.1" xmlns="http://www.w3.org/2000/svg" xmlns:xlink="http://www.w3.org/1999/xlink" xml:space="preserve" xmlns:serif="http://www.serif.com/" style="fill-rule:evenodd;clip-rule:evenodd;stroke-linejoin:round;stroke-miterlimit:2;"><g><g><path d="M24.67,14.243l-24.67,14.243l0,-28.486l24.67,14.243Z" style="fill:#c4c4c4;fill-opacity:0.2;fill-rule:nonzero;"/><path d="M13.27,20.668l-8.983,0l0,-1.89l3.226,-3.261c0.955,-0.978 1.579,-1.656 1.872,-2.034c0.293,-0.378 0.504,-0.728 0.633,-1.051c0.129,-0.322 0.193,-0.656 0.193,-1.001c0,-0.516 -0.142,-0.9 -0.426,-1.152c-0.284,-0.252 -0.664,-0.378 -1.138,-0.378c-0.499,0 -0.982,0.114 -1.451,0.343c-0.468,0.228 -0.958,0.554 -1.467,0.976l-1.477,-1.749c0.633,-0.54 1.157,-0.92 1.573,-1.143c0.416,-0.223 0.87,-0.394 1.363,-0.514c0.492,-0.12 1.043,-0.18 1.652,-0.18c0.803,0 1.512,0.146 2.127,0.439c0.615,0.293 1.093,0.703 1.432,1.231c0.34,0.527 0.51,1.13 0.51,1.81c0,0.592 -0.104,1.147 -0.312,1.666c-0.208,0.518 -0.53,1.05 -0.967,1.595c-0.436,0.545 -1.205,1.321 -2.307,2.329l-1.652,1.556l0,0.123l5.599,0l0,2.285Z" style="fill:#a90000;fill-opacity:0.43;fill-rule:nonzero;"/></g></g></svg>