<?xml version="1.0" encoding="UTF-8" standalone="no"?><!DOCTYPE svg PUBLIC "-//W3C//DTD SVG 1.1//EN" "http://www.w3.org/Graphics/SVG/1.1/DTD/svg11.dtd"><svg width="100%" height="100%" viewBox="0 0 25 29" version="1.1" xmlns="http://www.w3.org/2000/svg" xmlns:xlink="http://www.w3.org/1999/xlink" xml:space="preserve" xmlns:serif="http://www.serif.com/" style="fill-rule:evenodd;clip-rule:evenodd;stroke-linejoin:round;stroke-miterlimit:2;"><g><g><path d="M24.67,14.243l-24.67,14.243l0,-28.486l24.67,14.243Z" style="fill:#c4c4c4;fill-opacity:0.2;fill-rule:nonzero;"/><path d="M4.199,15.21c0,-2.543 0.538,-4.436 1.613,-5.678c1.075,-1.242 2.685,-1.863 4.83,-1.863c0.732,0 1.306,0.044 1.722,0.132l0,2.171c-0.521,-0.118 -1.037,-0.176 -1.547,-0.176c-0.931,0 -1.691,0.14 -2.28,0.422c-0.589,0.281 -1.03,0.697 -1.323,1.248c-0.293,0.55 -0.466,1.333 -0.519,2.346l0.115,0c0.58,-0.996 1.508,-1.494 2.786,-1.494c1.148,0 2.048,0.361 2.698,1.081c0.65,0.721 0.976,1.717 0.976,2.989c0,1.371 -0.387,2.456 -1.161,3.256c-0.773,0.8 -1.845,1.2 -3.216,1.2c-0.95,0 -1.777,-0.22 -2.483,-0.66c-0.706,-0.439 -1.251,-1.081 -1.635,-1.924c-0.384,-0.844 -0.576,-1.861 -0.576,-3.05Zm4.641,3.463c0.58,0 1.025,-0.195 1.336,-0.585c0.31,-0.389 0.466,-0.945 0.466,-1.665c0,-0.627 -0.145,-1.121 -0.435,-1.481c-0.29,-0.361 -0.728,-0.541 -1.314,-0.541c-0.551,0 -1.021,0.179 -1.411,0.536c-0.39,0.358 -0.585,0.774 -0.585,1.248c0,0.698 0.184,1.287 0.55,1.767c0.366,0.48 0.83,0.721 1.393,0.721Z" style="fill:#a90000;fill-opacity:0.43;fill-rule:nonzero;"/></g></g></svg>