<?xml version="1.0" encoding="UTF-8" standalone="no"?><!DOCTYPE svg PUBLIC "-//W3C//DTD SVG 1.1//EN" "http://www.w3.org/Graphics/SVG/1.1/DTD/svg11.dtd"><svg width="100%" height="100%" viewBox="0 0 25 29" version="1.1" xmlns="http://www.w3.org/2000/svg" xmlns:xlink="http://www.w3.org/1999/xlink" xml:space="preserve" xmlns:serif="http://www.serif.com/" style="fill-rule:evenodd;clip-rule:evenodd;stroke-linejoin:round;stroke-miterlimit:2;"><g><g><path d="M24.67,14.243l-24.67,14.243l0,-28.486l24.67,14.243Z" style="fill:#c4c4c4;fill-opacity:0.2;fill-rule:nonzero;"/><path d="M12.769,10.692c0,0.803 -0.244,1.486 -0.73,2.048c-0.486,0.563 -1.169,0.949 -2.048,1.16l0,0.053c1.037,0.129 1.823,0.444 2.356,0.945c0.533,0.501 0.8,1.176 0.8,2.026c0,1.236 -0.449,2.198 -1.345,2.887c-0.897,0.688 -2.177,1.033 -3.841,1.033c-1.395,0 -2.631,-0.232 -3.709,-0.695l0,-2.311c0.498,0.252 1.046,0.457 1.644,0.615c0.597,0.158 1.189,0.237 1.775,0.237c0.896,0 1.559,-0.152 1.986,-0.457c0.428,-0.304 0.642,-0.794 0.642,-1.468c0,-0.603 -0.246,-1.031 -0.738,-1.283c-0.493,-0.252 -1.278,-0.378 -2.356,-0.378l-0.975,0l0,-2.083l0.993,0c0.996,0 1.724,-0.13 2.184,-0.391c0.46,-0.261 0.69,-0.707 0.69,-1.34c0,-0.973 -0.61,-1.459 -1.828,-1.459c-0.422,0 -0.851,0.07 -1.288,0.211c-0.437,0.14 -0.921,0.384 -1.455,0.729l-1.256,-1.872c1.171,-0.843 2.569,-1.265 4.192,-1.265c1.33,0 2.38,0.269 3.151,0.808c0.77,0.539 1.156,1.289 1.156,2.25Z" style="fill:#a90000;fill-opacity:0.43;fill-rule:nonzero;"/></g></g></svg>